<svg version="1" xmlns="http://www.w3.org/2000/svg" width="933.333" height="933.333" viewBox="0 0 700.000000 700.000000"><path d="M347.7 19.6c-.1.1-4.2.5-9.2.9-4.9.4-9.2.8-9.5 1-.3.1-3.2.6-6.5 1-8.4 1-8.8 1.1-20 3.5-28.3 5.9-41.7 10-53.5 16.4-3 1.6-9.1 4.9-13.5 7.3-4.4 2.4-19 9.8-32.3 16.3-16.9 8.3-25.8 13.3-29.1 16.2-2.6 2.4-8.7 7.1-13.6 10.5-4.8 3.5-8.4 6.3-7.9 6.3.4 0-1 1.9-3.2 4.2-6.9 7.2-12.9 16-15.9 23.3-1.6 3.8-6.3 13.5-10.4 21.5-18.3 35.5-18.8 36.6-26.8 63.9-8.6 29.5-9 32-9.1 51.8 0 9.8.4 20.3.8 23.3.5 3 1.1 7.8 1.4 10.6.9 7.7 4.3 24.4 7.6 37.4 3.3 12.9 12.5 32.3 15.5 32.8 2.7.5 7.5-1.8 7.6-3.7.1-2.8.9-6.5 2.4-11.1 1.7-5.3 2.1-19.8.8-29.1-.5-3.6-.8-7.6-.8-9 .9-14.4 5-32.7 9-39.4 5.1-8.8 13.2-13 24.8-12.9 7.1.1 7.7-.1 7.8-2 1-21.7 10.5-37 27.6-44.6 13.5-6 25.1-4.4 33.4 4.5 5.2 5.6 8.3 9 9.9 11.1.8 1 3 3.8 4.8 6 1.7 2.3 3.2 4.5 3.2 4.8 0 .4.8 1.9 1.8 3.3.9 1.5 2.6 4.8 3.7 7.5l2.1 4.7 5.8-5.2c8.2-7.3 12.3-14 19.1-31.1 4.7-11.7 12-23.1 17-26.5 13.7-9.2 33-3.8 39.6 11.1 1.9 4.5 2.3 7.2 2.4 17.3.1 7.2-.4 15.8-1.4 21.6l-1.6 9.6 6.5-3.5c8-4.4 13.1-8.4 22.9-18.2 7.6-7.6 11.4-13.7 14.1-22.8 1.8-5.8 7.9-12.5 14.1-15.5 12.9-6.1 27-1.6 34.6 11.1 2.6 4.4 2.8 5.4 2.7 15.2 0 8.4-.5 11.4-2.2 15.2-1.1 2.7-1.9 4.8-1.6 4.8.2 0 3.5-1.6 7.2-3.7 13.1-7.1 33.3-21.4 40.3-28.6l4-4 8.3.6c4.5.3 10.7 1.5 13.8 2.7 3.1 1.1 6.5 2.3 7.5 2.5 7.6 1.5 13.9 7.2 19.5 17.5 3.4 6.1 4.2 9.1 5.3 18.5 1.2 9.6 2.3 13.5 3.9 13.5 2 0 8.4 6.7 10.8 11.3 2.5 4.8 3.4 19.1 1.8 26.3-1.2 5.2-1.4 12.5-1.1 31.9.2 7.7.1 7.5 3.9 17.3 1.8 4.5 3.9 10.6 4.6 13.5.8 2.8 2.3 7.8 3.3 10.9l1.8 5.7 7.7-9.3c4.2-5.1 9.2-12.1 11.1-15.7 4.5-8.2 10.4-23.2 11.2-28.4.3-2.2 1.2-8.5 2.1-14 .8-5.5 1.7-11.1 1.9-12.5.5-2.7 3.4-22.5 4.1-27.8.2-1.7.6-4.7.9-6.5 1.8-13 2.3-38.3 1.1-50.1-.9-7.9-5-24.8-8.6-35.1-6.3-17.6-18.7-39.9-34.8-62.7-18.6-26.1-24.2-32-48.7-51.5-9.6-7.6-10.6-8.1-24-12.5-14.6-4.8-30.9-9.2-48-12.8-5.8-1.3-11.6-3.2-13.7-4.5-6.8-4.5-20.1-8.9-35.8-12-6-1.2-35.3-2.7-36.3-1.9z"/><path d="M249.3 335.1c-12.5 2.3-21.1 13.2-20.1 25.2 1.6 19.6 22.9 29.5 38.4 17.9 6.3-4.9 9.7-10.9 9.8-17.6 0-7.2-1.8-12.5-5.9-17.3-5.7-6.6-14-9.7-22.2-8.2zm152.2.8c-8.9 4.1-14.5 12.4-14.5 21.8.1 21.3 23.8 32.4 39.8 18.7 10.3-8.8 11.4-22.5 2.7-34-5.7-7.5-19-10.5-28-6.5zm154.6 77.7c-1.2 2.4-2.1 5.1-2.1 6.1 0 .9-.7 4.6-1.6 8.2-1.8 7.1-6.2 14.6-12.1 20.8-3.4 3.5-6.5 7.9-14.2 20.3-.9 1.4-2.6 4.5-3.9 7-6.6 12.4-8.6 15.7-11.3 19.1-1.6 2-2.9 3.9-2.9 4.2 0 .3-1.3 2.5-2.8 4.9-1.5 2.4-3.7 6-4.7 8.2-2.2 4.3-7.3 9.9-12.5 13.6-1.9 1.4-6.2 5.1-9.6 8.2-5.5 5.3-6.4 5.8-11 5.9-9.5.3-25.6-6-34.8-13.8-4.1-3.4-21.2-11.9-33.1-16.3-12.1-4.6-19.6-6.2-29.5-6.5-4.1-.1-9.7-.5-12.3-1-3.6-.5-5.9-.3-9.3 1-4.5 1.7-7.3 1.6-14.4-.3-2.5-.6-5.1-.5-8.3.3-2.6.6-4.9 1-5.1.8-.6-.7-12.4-.5-17.1.2-15.6 2.3-38.8 14.7-46.2 24.8-6.2 8.4-14.4 13.9-22.9 15.5-4.9.8-5.2.7-9.7-2.7-2.5-2-6.4-4.8-8.5-6.2-2.3-1.6-5-4.8-6.7-8-3.8-7.3-7.4-12.5-12.9-18.2-2.5-2.6-5.3-6.2-6.2-8-5-9.6-27.3-39-45-59.4-4.4-5-5-6-11.3-19.1-2.8-5.6-5.5-10.2-6.1-10.2-2.6 0-7.9 3-9 5.1-1.2 2.1-1 8.3.4 15.9.3 1.4.7 4.4 1 6.8.4 4.3 1.4 8.6 7.6 33.2 1.7 6.9 3.3 13.4 3.5 14.4 3.4 15.9 16.4 55 21.9 65.4.8 1.5 3.8 7.6 6.6 13.7 6.9 14.4 12.6 24.5 21.6 38.1 9.9 15.1 15.3 21.6 30.1 36.7 13.4 13.6 17.8 17.1 27 21.5 6.9 3.3 12.7 7 16.8 10.7 11.3 10.1 29.6 19 43 21 2.3.3 5.2.8 6.5 1 2.4.5 34.6 1.6 52 1.8 12.4.1 35.4-1.8 46.5-3.9 1-.2 3.6-.6 5.8-.9 5.2-.8 18.1-5.2 24.2-8.3 5.8-2.9 14.9-8.9 18.6-12.3 5.7-5.3 16.2-14.4 18.2-15.8 1.2-.8 2.7-2 3.4-2.6.6-.5 4.6-3.5 8.9-6.5 11.5-8.1 16.2-12.7 21.6-21 2.7-4.1 5.3-8.2 5.8-9 11.7-17.6 15.7-23.8 16.9-25.9.8-1.4 2-3.1 2.7-3.6 2.3-1.8 10.1-17.8 12.7-26 1.4-4.4 7.1-21.3 12.7-37.5s11.8-34.5 13.9-40.5l3.6-11v-22c.1-23.6 0-24.2-5.7-35.1-1.9-3.6-3.6-5.5-5.7-6.2-2.8-1-3-.9-5 3.4zM367 540.4c4.1.3 10 1.1 13 1.7 3 .6 6.2 1.3 7 1.4.8.2 1.6.4 1.8.4.1.1.3.1.5 0 .6-.2 16.8 6.1 21.7 8.5 12.3 5.8 18 14.1 18 25.8 0 14.6-9.7 25.1-24.3 26.5-5.5.5-9.3-.5-21.2-5.4-9.2-3.9-18.4-5.4-33-5.7-15.7-.2-23.5.7-32.2 3.7-9.4 3.3-22.1 5.9-26.4 5.4-13.2-1.6-24.1-14.4-23.4-27.7.6-11.3 8.3-21.2 19-24.4 3.3-.9 10.1-3 15-4.6 12.9-4.2 17.4-5 31-5.7 6.6-.3 12.1-.6 12.2-.7.4-.3 14.5.2 21.3.8z"/></svg>